<svg width="50" height="50" viewBox="0 0 50 50" fill="none" xmlns="http://www.w3.org/2000/svg">
<path fill-rule="evenodd" clip-rule="evenodd" d="M25.0723 12.0659C32.8403 12.0659 39.1426 17.0743 39.1426 23.1763C39.1424 29.278 32.8605 34.2962 25.0928 34.2964C24.2435 34.2922 23.395 34.2318 22.5537 34.1157L16.8525 37.9595C16.785 38.0173 16.7009 38.0519 16.6123 38.0591C16.5051 38.0588 16.4017 38.0196 16.3213 37.9487C16.2662 37.8932 16.2267 37.8238 16.209 37.7476C16.1913 37.6715 16.1958 37.5921 16.2207 37.5181L17.5449 32.5698C13.631 30.5927 11.0216 27.1303 11.0215 23.1763C11.0215 17.0843 17.2943 12.0659 25.0723 12.0659ZM21.1094 19.8638C20.9341 19.856 20.76 19.8984 20.6074 19.9849C20.4642 20.0782 20.3605 20.2211 20.3164 20.3862L18.1885 26.1567C18.1484 26.267 18.0783 26.3873 18.0781 26.4976C18.0609 26.5972 18.0609 26.6997 18.0781 26.7993C18.0728 26.8558 18.0728 26.9127 18.0781 26.9692C18.1075 27.1357 18.1968 27.2859 18.3291 27.3911C18.4648 27.493 18.6311 27.546 18.8008 27.5415C18.9574 27.5612 19.1164 27.5261 19.25 27.4419C19.3835 27.3577 19.4834 27.2293 19.5332 27.0796L19.9551 25.8452H22.5947L23.0156 27.0796C23.0667 27.2264 23.1659 27.3523 23.2969 27.436C23.4279 27.5198 23.5835 27.5568 23.7383 27.5415C23.8389 27.5439 23.939 27.5257 24.0322 27.4878C24.1255 27.4498 24.21 27.3928 24.2803 27.3208C24.3528 27.2552 24.4101 27.1745 24.4482 27.0845C24.4863 26.9944 24.5043 26.897 24.501 26.7993C24.5044 26.7358 24.5044 26.6714 24.501 26.6079C24.4661 26.4552 24.4231 26.3045 24.3711 26.1567L22.3633 20.4858C22.3153 20.2851 22.1937 20.1098 22.0225 19.9946C21.8607 19.9027 21.6762 19.8571 21.4902 19.8638H21.1094ZM14.4229 19.9946C14.2071 19.9918 13.9961 20.0585 13.8213 20.1851C13.7421 20.2463 13.6786 20.3257 13.6367 20.4165C13.5948 20.5074 13.5753 20.6076 13.5801 20.7075C13.5752 20.7608 13.5752 20.8144 13.5801 20.8677C13.596 20.9519 13.6294 21.0322 13.6777 21.103C13.726 21.1737 13.7888 21.2333 13.8613 21.2788C14.025 21.3761 14.213 21.425 14.4033 21.4194H15.9385L15.9492 26.6987C15.9393 26.772 15.9393 26.8462 15.9492 26.9194C15.9822 27.0975 16.0781 27.2576 16.2197 27.3706C16.3685 27.4862 16.5529 27.5468 16.7412 27.5415C16.849 27.5458 16.9574 27.5275 17.0576 27.4878C17.1577 27.448 17.2488 27.3879 17.3242 27.311C17.403 27.2306 17.4642 27.1342 17.5039 27.0288C17.5337 26.9498 17.5505 26.8667 17.5547 26.7827V21.4194H19.04C19.2523 21.4291 19.4612 21.3653 19.6318 21.2388C19.7112 21.1754 19.7745 21.0939 19.8164 21.0015C19.8581 20.9092 19.8777 20.8086 19.873 20.7075C19.8779 20.6575 19.8779 20.6062 19.873 20.5562C19.8596 20.4712 19.8269 20.3899 19.7783 20.3188C19.7298 20.2479 19.666 20.1884 19.5918 20.145C19.4309 20.0403 19.2416 19.9879 19.0498 19.9946H14.4229ZM34.8877 19.8638C34.7679 19.8615 34.6498 19.8933 34.5469 19.9546C34.4375 20.0418 34.3332 20.1359 34.2354 20.2358L31.6963 23.1665V20.4966C31.6639 20.3153 31.5682 20.1514 31.4258 20.0347C31.2616 19.9151 31.0612 19.8558 30.8584 19.8667C30.6555 19.8777 30.4619 19.9585 30.3115 20.0952C30.1636 20.2642 30.0848 20.483 30.0908 20.7075L30.0303 26.6489C30.0204 26.7221 30.0204 26.7965 30.0303 26.8696C30.0633 27.0478 30.16 27.2078 30.3018 27.3208C30.4476 27.435 30.6283 27.4956 30.8135 27.4917C30.9243 27.4963 31.0351 27.4787 31.1387 27.439C31.2422 27.3993 31.3367 27.3387 31.416 27.2612C31.5639 27.0923 31.6426 26.8734 31.6367 26.6489V24.9722L32.5293 24.0396L34.3965 27.0503C34.4738 27.1913 34.5842 27.3113 34.7178 27.4009C34.8413 27.4658 34.9797 27.4974 35.1191 27.4917C35.3289 27.4946 35.5338 27.4277 35.7012 27.3013C35.7902 27.2256 35.8596 27.1293 35.9033 27.021C35.947 26.9126 35.9638 26.7945 35.9521 26.6782V26.6284C35.8968 26.4597 35.8151 26.3005 35.7109 26.1567V26.0562L33.7041 22.9448L35.3701 21.1187C35.4435 21.0358 35.5073 20.9451 35.5605 20.8481C35.6128 20.7564 35.6403 20.652 35.6406 20.5464V20.4165C35.6263 20.3355 35.5956 20.2579 35.5508 20.189C35.506 20.1201 35.448 20.061 35.3799 20.0151C35.2351 19.9161 35.0631 19.8628 34.8877 19.8638ZM25.5439 19.8638C25.4347 19.8587 25.3255 19.8768 25.2236 19.9165C25.1216 19.9563 25.0292 20.0175 24.9521 20.0952C24.8005 20.2621 24.7213 20.4823 24.7314 20.7075L24.7607 26.4175C24.7534 26.5276 24.7534 26.6384 24.7607 26.7485C24.7914 26.9488 24.9002 27.1292 25.0625 27.2505C25.2439 27.3686 25.4588 27.4255 25.6748 27.4116H29.0664C29.2824 27.4145 29.494 27.3469 29.6689 27.2202C29.748 27.159 29.8116 27.0795 29.8535 26.9888C29.8953 26.898 29.9149 26.7985 29.9102 26.6987V26.5483C29.8948 26.4641 29.8617 26.3838 29.8135 26.313C29.7651 26.2421 29.702 26.1813 29.6289 26.1362C29.4664 26.0355 29.2781 25.9834 29.0869 25.9858H26.3271V20.7075C26.337 20.6377 26.337 20.5664 26.3271 20.4966C26.2982 20.3164 26.2048 20.1524 26.0654 20.0347C25.9151 19.922 25.7318 19.8616 25.5439 19.8638ZM22.2627 24.7114H20.3662L21.3193 21.7007L22.2627 24.7114Z" fill="white"/>
</svg>
