<svg width="50" height="50" viewBox="0 0 50 50" fill="none" xmlns="http://www.w3.org/2000/svg">
<g clip-path="url(#clip0_87_288)">
<path d="M25 11.6787C29.3415 11.6787 29.8512 11.6981 31.5671 11.7755C33.1541 11.8465 34.012 12.111 34.5862 12.3367C35.3474 12.6335 35.8893 12.9818 36.457 13.5495C37.0246 14.1172 37.3794 14.6591 37.6697 15.4203C37.8891 15.9944 38.16 16.8524 38.231 18.4394C38.3084 20.1553 38.3277 20.6649 38.3277 25.0065C38.3277 29.348 38.3084 29.8576 38.231 31.5735C38.16 33.1605 37.8955 34.0185 37.6697 34.5926C37.373 35.3538 37.0246 35.8957 36.457 36.4634C35.8893 37.0311 35.3474 37.3859 34.5862 37.6762C34.012 37.8955 33.1541 38.1664 31.5671 38.2374C29.8512 38.3148 29.3415 38.3342 25 38.3342C20.6585 38.3342 20.1489 38.3148 18.4329 38.2374C16.846 38.1664 15.988 37.9019 15.4139 37.6762C14.6526 37.3794 14.1108 37.0311 13.5431 36.4634C12.9754 35.8957 12.6206 35.3538 12.3303 34.5926C12.111 34.0185 11.84 33.1605 11.7691 31.5735C11.6916 29.8576 11.6723 29.348 11.6723 25.0065C11.6723 20.6649 11.6916 20.1553 11.7691 18.4394C11.84 16.8524 12.1045 15.9944 12.3303 15.4203C12.627 14.6591 12.9754 14.1172 13.5431 13.5495C14.1108 12.9818 14.6526 12.627 15.4139 12.3367C15.988 12.1174 16.846 11.8465 18.4329 11.7755C20.1489 11.6916 20.665 11.6787 25 11.6787ZM25 8.75C20.5875 8.75 20.0328 8.76935 18.2974 8.84676C16.5686 8.92418 15.3881 9.20157 14.3559 9.60153C13.285 10.0144 12.3819 10.5756 11.4788 11.4788C10.5756 12.3819 10.0208 13.2915 9.60153 14.3559C9.20157 15.3881 8.92418 16.5686 8.84676 18.3039C8.76935 20.0328 8.75 20.5875 8.75 25C8.75 29.4125 8.76935 29.9672 8.84676 31.7026C8.92418 33.4314 9.20157 34.6119 9.60153 35.6506C10.0144 36.7214 10.5756 37.6246 11.4788 38.5277C12.3819 39.4308 13.2915 39.9856 14.3559 40.4049C15.3881 40.8049 16.5686 41.0823 18.3039 41.1597C20.0392 41.2371 20.5875 41.2565 25.0065 41.2565C29.4254 41.2565 29.9737 41.2371 31.709 41.1597C33.4379 41.0823 34.6184 40.8049 35.657 40.4049C36.7279 39.9921 37.631 39.4308 38.5342 38.5277C39.4373 37.6246 39.9921 36.715 40.4114 35.6506C40.8114 34.6184 41.0888 33.4379 41.1662 31.7026C41.2436 29.9672 41.2629 29.4189 41.2629 25C41.2629 20.5811 41.2436 20.0328 41.1662 18.2974C41.0888 16.5686 40.8114 15.3881 40.4114 14.3494C39.9985 13.2786 39.4373 12.3754 38.5342 11.4723C37.631 10.5692 36.7214 10.0144 35.657 9.59508C34.6249 9.19512 33.4443 8.91773 31.709 8.84031C29.9673 8.76935 29.4125 8.75 25 8.75Z" fill="white"/>
<path d="M24.9999 16.6587C20.3939 16.6587 16.6523 20.3938 16.6523 25.0062C16.6523 29.6187 20.3875 33.3538 24.9999 33.3538C29.6123 33.3538 33.3475 29.6187 33.3475 25.0062C33.3475 20.3938 29.6123 16.6587 24.9999 16.6587ZM24.9999 30.4186C22.0067 30.4186 19.5811 27.993 19.5811 24.9998C19.5811 22.0065 22.0067 19.581 24.9999 19.581C27.9932 19.581 30.4187 22.0065 30.4187 24.9998C30.4187 27.993 27.9932 30.4186 24.9999 30.4186Z" fill="white"/>
<path d="M33.6767 18.2719C34.7527 18.2719 35.6249 17.3996 35.6249 16.3237C35.6249 15.2477 34.7527 14.3755 33.6767 14.3755C32.6008 14.3755 31.7285 15.2477 31.7285 16.3237C31.7285 17.3996 32.6008 18.2719 33.6767 18.2719Z" fill="white"/>
</g>
<defs>
<clipPath id="clip0_87_288">
<rect width="32.5" height="32.5" fill="white" transform="translate(8.75 8.75)"/>
</clipPath>
</defs>
</svg>
