<svg width="50" height="50" viewBox="0 0 50 50" fill="none" xmlns="http://www.w3.org/2000/svg">
<path d="M39.9782 18.4956C39.6243 17.1682 38.5844 16.1284 37.2791 15.7744C34.8897 15.1328 25.3544 15.1328 25.3544 15.1328C25.3544 15.1328 15.7968 15.1328 13.4296 15.7744C12.1243 16.1284 11.0844 17.1682 10.7305 18.4956C10.0889 20.885 10.0889 25.885 10.0889 25.885C10.0889 25.885 10.0889 30.885 10.7305 33.2744C11.0844 34.6018 12.1243 35.6417 13.4296 35.9957C15.819 36.6372 25.3544 36.6373 25.3544 36.6373C25.3544 36.6373 34.9119 36.6372 37.2791 35.9957C38.5844 35.6417 39.6243 34.6018 39.9782 33.2744C40.6198 30.885 40.6198 25.885 40.6198 25.885C40.6198 25.885 40.6198 20.885 39.9782 18.4956ZM22.2349 30.4204V21.3496L30.2216 25.885L22.2349 30.4204Z" fill="white"/>
</svg>
